<svg width="10" height="11" viewBox="0 0 10 11" fill="none" xmlns="http://www.w3.org/2000/svg">
<path fill-rule="evenodd" clip-rule="evenodd" d="M5.18542 10.2795C3.78136 10.2796 2.65148 9.8439 1.76389 8.97242C0.892233 8.10094 0.456216 6.98735 0.456124 5.61549C0.456032 4.24364 0.891902 3.12995 1.77938 2.25839C2.66715 1.38679 3.81291 0.950947 5.2332 0.950851C7.08944 0.950727 8.71935 1.85441 9.47801 3.54903L7.20244 4.7435C6.75051 3.98498 6.12121 3.59766 5.29802 3.59772C4.70092 3.59776 4.21658 3.79147 3.82936 4.17883C3.45808 4.56622 3.26449 5.0504 3.26453 5.6153C3.26461 6.79348 4.12003 7.66496 5.26612 7.66488C6.08902 7.66482 6.84753 7.21286 7.17039 6.51884L9.44613 7.87443C8.67145 9.35932 7.07383 10.2794 5.18542 10.2795Z" fill="white"/>
</svg>
