<svg width="11" height="13" viewBox="0 0 11 13" fill="none" xmlns="http://www.w3.org/2000/svg">
<path fill-rule="evenodd" clip-rule="evenodd" d="M5.80053 9.4533C8.18197 9.45314 10.1126 7.35695 10.1124 4.7713C10.1122 2.18568 8.18135 0.0897473 5.7999 0.0899071C4.82917 0.0899723 3.93354 0.438293 3.21271 1.02602L3.21266 0.213298L0.379037 0.213488L0.379888 12.9033L3.21351 12.9032L3.21322 8.51753C3.93413 9.10516 4.8298 9.45336 5.80053 9.4533ZM3.21297 4.77657L3.21297 4.76695C3.2155 3.61243 4.12442 2.67727 5.24558 2.67719C6.36848 2.67712 7.27869 3.61476 7.27877 4.77149C7.27884 5.92821 6.36876 6.86598 5.24586 6.86606C4.1247 6.86614 3.21565 5.93109 3.21297 4.77657Z" fill="white"/>
</svg>
