<svg width="12" height="14" viewBox="0 0 12 14" fill="none" xmlns="http://www.w3.org/2000/svg">
<path fill-rule="evenodd" clip-rule="evenodd" d="M6.2253 13.2646C4.48223 13.2648 3.02964 12.7 1.85136 11.5703C0.673109 10.4245 0.091968 8.95581 0.0918478 7.1643C0.0917264 5.35668 0.688815 3.8718 1.86691 2.70969C3.06115 1.53141 4.51366 0.950295 6.24062 0.950179C8.37097 0.950036 10.2594 1.86985 11.3569 3.30621L9.43647 5.32379C8.51641 4.33933 7.51583 3.83908 6.43446 3.83915C5.51452 3.83921 4.75599 4.1459 4.12658 4.77539C3.51332 5.40488 3.20674 6.19575 3.2068 7.14798C3.20686 8.06792 3.51355 8.84259 4.1269 9.472C4.75639 10.0853 5.51496 10.3919 6.41879 10.3918C7.59696 10.3917 8.62982 9.87518 9.48512 8.85834L11.4867 10.7788C10.938 11.5051 10.1955 12.1023 9.27551 12.5704C8.35583 13.0386 7.33892 13.2646 6.2253 13.2646Z" fill="white"/>
</svg>
